<svg version="1.2" xmlns="http://www.w3.org/2000/svg" viewBox="0 0 512 200" width="512" height="200">
	<title>New Project</title>
	<defs>
		<linearGradient id="g1" x2="1" gradientUnits="userSpaceOnUse" gradientTransform="matrix(499.569,0,0,129.247,6,99.6)">
			<stop offset="0" stop-color="#2f2d2e"/>
			<stop offset="1" stop-color="#b17533"/>
		</linearGradient>
	</defs>
	<style>
		.s0 { fill: url(#g1) } 
	</style>
	<path id="JutaLuxe" fill-rule="evenodd" class="s0" d="m64.9 49.7q2.4-5.9 6-10.2 3.7-4.3 7.9-4.3 3.2 0 5.1 1.9 2.1 1.8 2.1 4.7 0 4-5.1 7.4-5.1 3.3-12.3 5.3-3.4 11.4-12.3 38.2-8.9 26.8-13.5 39.8 9.2-2.6 16.5-10.8 7.3-8.2 12.2-19.5 0.3-0.7 0.9-1.1 0.7-0.5 1.4-0.5 1.4 0 2.1 1.3 0.8 1 0.4 2.4-6.1 13.9-14.5 22.4-8.3 8.4-21.1 11.9l-1.5 4.4q-2.5 7.2-4.8 11.6-2.2 4.2-5.6 6.9-3.3 2.6-8.3 2.7-6.6 0-10.5-3.2-3.9-3.1-4-8.7 0-5.8 2.7-8.8 2.7-3 6.7-4.4 4.1-1.3 11.8-2.8 5.2-0.8 9.5-1.9 8-22.9 17.2-50.3 9.1-27.4 9.1-28.8-2.2 0.4-7.8 1.3-11 1.7-18.3 3.5-7.2 1.8-12.5 5.8-5.4 4-5.4 10.6-0.2 4.7 2.2 7.6 2.6 2.9 7.4 3.4 1.1 0 1.8 0.8 0.7 0.8 0.7 1.9 0 0.9-0.9 1.7-0.7 0.7-1.7 0.7-6.4 0-10.7-4.8-4.1-4.7-3.9-11.5 0-8.4 5.9-13.4 5.9-5 14.1-7.2 8.1-2.2 20.4-4.1zm6.1-1.4q3.7-0.7 6.6-2.8 2.9-2.2 2.9-3.8 0-0.7-0.5-1.2-0.4-0.5-1.2-0.5-1.8 0-4 2.5-2.2 2.4-3.8 5.8zm-36.6 92.9l0.3-1.2q-5.1 1.1-6.7 1.4-6.4 1.2-9.6 2-3 0.9-5.2 2.9-2.1 2-2.1 5.8 0 3.5 2.6 5.2 2.7 1.7 6.7 1.7 3.6-0.1 6.1-2.3 2.4-2.3 4-5.7 1.7-3.4 3.9-9.8zm103.9-40.5q1.4 0.8 1.4 2.3 0 0.4-0.2 1.1-6 13.8-11.1 19.7-5 5.9-11.1 5.9-7.5 0-8.8-8.7-2.6 3.9-6.7 6.4-3.9 2.3-7.9 2.3h-0.1q-5.7 0-8.8-3.2-2.9-3.3-2.9-9.5 0-4 2.2-10.6 2.3-6.7 10.4-27.8l2-5.2q0.3-0.7 0.9-1.1 0.7-0.5 1.4-0.5 1.5 0 2.2 1.1 0.8 1.1 0.3 2.3l-5.6 14.9q-6.1 16.3-7.5 20.2-1.2 3.8-1.2 6.7 0 7.6 6.7 7.6 3.8 0 7.5-3.2 3.6-3.2 6.5-9.3 2.5-4.8 4.9-11.3 2.6-6.6 7.5-20.1l2.7-7.3q0.3-0.7 0.9-1.1 0.7-0.5 1.4-0.5 1.5 0 2.2 1.1 0.9 1.1 0.4 2.3-2.3 6.2-4.3 11.7l-2.5 6.8q-3.4 9.3-5.5 16.2-1.9 7-1.9 9.5 0 2.7 0.8 3.9 0.9 1.3 2.8 1.3 4.3 0 8.2-5.3 4-5.2 9.3-17.3 0.3-0.7 0.9-1.1 0.7-0.5 1.5-0.5 0.3 0 1.1 0.3zm39.6 0q1.5 0.8 1.5 2.3 0 0.4-0.2 1.1-6 12.8-11.7 19.2-5.6 6.4-13.4 6.4-4.3 0-6.7-2.8-2.3-3-2.3-7.5 0-3.3 1.9-10.3 2-7.1 5-14.7l6.2-17.5h-7.7q-1 0-1.8-0.7-0.7-0.7-0.7-1.8 0-1 0.7-1.7 0.8-0.9 1.8-0.9h9.4q1.1-2.9 3.2-9 2.2-6.2 3.2-9.1 0.6-1.7 2.4-1.7 1.3 0 2.1 1.1 0.8 1.1 0.3 2.3-0.6 1.9-2.5 7.4-1.9 5.4-3.2 9h8.2q1.1 0 1.8 0.9 0.7 0.7 0.7 1.7 0 1.1-0.7 1.8-0.7 0.7-1.8 0.7h-10l-2.9 8.6q-0.4 0.8-3.9 10.7-3.8 10.6-5.3 15.6-1.3 5-1.3 7.6 0 2.5 1 3.8 1.1 1.4 2.9 1.4 5.9 0 10.6-5.8 4.7-5.8 9.7-16.9 0.9-1.5 2.5-1.5 0.3 0 1 0.3zm63.4 0q1.6 0.7 1.6 2.3 0 0.4-0.3 1.1l-0.1 0.4q-3.4 7.5-6.2 12.5-2.7 5-6.8 8.9-4.2 3.8-9.2 3.8-4.2 0-6.6-2.8-2.1-2.8-2.1-7.5-7.3 10.3-15.3 10.3-4.8 0-7.4-3.7-2.5-3.6-2.5-9.5 0-8.3 3.7-18.9 3.9-10.6 10.1-18 6.2-7.5 13.1-7.5 7.9 0 11 6.4l2.1-5.5q0.3-0.7 0.9-1.1 0.7-0.4 1.5-0.4 1.5 0 2.1 1.2 0.7 1.1 0.3 2.2l-6.1 16.3-1.4 3.8q-3.6 10.3-5.3 15.8-1.7 5.5-1.7 8.6 0 2.7 0.8 3.9 0.9 1.3 2.8 1.3 5 0 8.9-6 4-6.1 8.5-16.2l0.2-0.4q0.8-1.6 2.3-1.6 0.3 0 1.1 0.3zm-45.1 23.9q4.5 0 8.5-4.7 4.1-4.7 7-10.9 2.9-6.2 6.4-15.1l3-7.8q-0.2-4.2-2.4-6.5-2.2-2.4-5.4-2.4-5.3 0.1-10.3 6.9-5 6.8-8.2 16.1-3.2 9.1-3.3 15.5 0 4.2 1.1 6.5 1.1 2.4 3.6 2.4zm106.7-74.7q2.3-6.1 6.1-10.5 3.7-4.5 8-4.5 3.2 0 5.1 1.9 2.1 1.8 2.1 4.7 0 4-5.1 7.4-5.1 3.3-12.3 5.3-3.5 8.9-8.1 24.2-6.2 19.7-9 26.7-2.8 6.7-5.7 11.3l6.7 6.4 3.3 3.2q7.5 7.6 11.9 11.6 4.4 3.9 9.7 6.9 5.3 3.1 10.4 3.1 4.6 0 8.4-1.7 3.8-1.9 5.3-5 0.2-0.8 0.8-1.1 0.7-0.5 1.5-0.5 1.2 0 1.8 1 0.7 0.8 0.7 1.7l-0.2 0.9q-2.2 4.9-7.3 7.5-5.1 2.4-11.1 2.4-6 0-12.1-3.3-5.9-3.3-10.8-7.7-4.9-4.3-12.7-12.1l-3.1-3.1q-4-4-6.1-5.8l-1.1 1.3q-3.2 3.8-7.8 6-4.6 2.2-9.4 2.2-12.6-1-12.6-11.7 0.3-6.2 4.1-9.8 3.8-3.6 9.3-3.6 7.1 0 16.5 7.9 2.4-4 4.9-10 3.2-8.1 8.8-26.3 4.1-13.5 7-21.5-2.1 0.3-7.4 1.2-11.1 1.7-18 3.4-6.9 1.7-12.1 5.3-5.1 3.7-6 9.8-0.1 0.5-0.1 1.5-0.2 4.1 2.1 7.1 2.3 3.2 6.3 3.7l1.2 0.1q1.1 0 1.9 0.9 0.7 0.7 0.6 1.8 0 1-0.9 1.7-0.7 0.7-1.8 0.7-1.2 0-1.7-0.1-6.2-0.8-9.7-5.7-3.3-4.2-3.1-10.5 0-1.3 0.1-1.9 1.1-8 6.8-12.5 5.9-4.5 13.6-6.4 7.6-2 19.9-3.9zm6.4-1.8q3.6-0.8 6.5-2.8 3-2.2 3-3.8 0-0.7-0.5-1.2-0.5-0.5-1.2-0.5-1.9 0-4.1 2.4-2.1 2.5-3.7 5.9zm-33.2 70.7q0.8-1 1.3-1.5-4.3-3.4-7.7-5.2-3.3-1.8-6.2-1.8-3.3 0-5.7 2.3-2.4 2.2-2.5 6 0 3.4 2.1 5 2.1 1.5 5.5 1.5 3.6 0 7.2-1.7 3.5-1.7 6-4.6zm104.8-18.1q1.4 0.8 1.4 2.3 0 0.3-0.2 1.1-6 13.7-11.1 19.7-5 5.8-11.1 5.8-7.5 0-8.7-8.6-2.7 3.9-6.7 6.3-3.9 2.3-8 2.3h-0.1q-5.7 0-8.7-3.1-3-3.3-3-9.5 0-4 2.2-10.6 2.3-6.7 10.4-27.8l2-5.2q0.3-0.7 0.9-1.1 0.7-0.5 1.5-0.5 1.4 0 2.2 1.1 0.7 1.1 0.2 2.3l-5.6 14.9q-6.1 16.3-7.4 20.2-1.3 3.8-1.3 6.7 0 7.5 6.7 7.5 3.8 0 7.5-3.1 3.6-3.2 6.5-9.3 2.5-4.9 4.9-11.3 2.6-6.6 7.6-20.1l2.6-7.3q0.3-0.7 0.9-1.1 0.7-0.5 1.5-0.5 1.4 0 2.2 1.1 0.8 1.1 0.3 2.3-2.3 6.2-4.2 11.7l-2.6 6.8q-3.4 9.3-5.5 16.2-1.9 7-1.9 9.5 0 2.7 0.8 3.9 0.9 1.2 2.8 1.2 4.3 0 8.2-5.2 4-5.2 9.4-17.3 0.2-0.7 0.8-1.1 0.7-0.5 1.5-0.5 0.3 0 1.1 0.3zm71.6 2.3q0 0.3-0.3 1.1-5.3 11.9-10.6 18.7-5.2 6.8-12.1 6.8-6.6 0-10.6-5.3-3.9-5.5-6.2-14.7l-17.2 19.2q-0.7 0.8-2 0.8-1.1 0-1.7-0.6-0.8-0.7-0.8-1.9 0-1.1 0.6-1.7l19.8-22.2q-0.9-5.8-1.9-14.3-1-9.1-1.5-11.1l-13.5 30.4q-0.7 1.6-2.3 1.6-1.2 0-2-0.9-0.6-0.9-0.6-1.8l0.3-1q2.4-5.4 6.6-14.8 4.2-9.5 5.8-13.3 1.2-3 2.6-4.7 1.4-1.9 3.9-1.9 1.7 0 2.5 1 1 1 1.5 2.9 0.6 2.8 1.8 12.9 0.9 7.8 1.2 10.2l22.9-25.7q0.9-0.9 2-0.9 0.9 0 1.7 0.7 0.8 0.9 0.8 1.9 0 0.9-0.7 1.7l-25.6 28.7q3.7 19.6 12.6 19.6 4.9 0 9.2-6.2 4.4-6.3 8.8-16.2 0.8-1.6 2.4-1.6 1 0 1.7 0.9 0.9 0.7 0.9 1.7zm51.4-2.3q1.5 0.7 1.5 2.4 0 0.2-0.2 1-6 13.1-13.2 19.3-7 6.2-16.3 6.2-7.5 0-11.9-4.5-4.3-4.6-4-12.1 0.3-8.1 4.4-17.7 4-9.7 10.2-16.4 6.3-6.8 13.1-6.8 4.7 0 7.5 2.4 2.9 2.3 2.9 6.6 0 8.7-9.6 14.8-9.5 6.1-22.1 9.2-1.3 4.6-1.3 8.6 0 5.1 2.9 8 3.1 2.8 8.5 2.8 7.3 0 13.2-5.4 6-5.5 10.9-17.1 0.5-1 1.5-1.3 1-0.4 2 0zm-35.7-1.5q10-3.2 17.3-7.7 7.3-4.5 7.3-10.4 0-2.2-1.5-3.1-1.3-0.8-3.8-0.8-5.6 0-10.7 6.5-5 6.6-8.6 15.5z"/>
</svg>